# xmcd
#
# Track frame offsets:
# 150
# 11932
# 24077
# 36197
# 48430
# 59905
# 71807
# 82887
# 96692
# 110497
# 123280
# 135862
# 147732
# 160927
# 173912
# 185857
# 198312
# 210575
# 222920
# 235395
# 247430
# 258917
# 272375
# 285677
# 297802
# 309372
#
# Disc length: 4301 seconds
#
# Revision: 1
# Processed by: cddbd v1.5.1PL0 Copyright (c) Steve Scherf et al.
# Submitted via: Axialis_AX_CDPlayer 2.6
#
DISCID=9510cb1a
DTITLE=Bob Wills and His Texas Playboys - The Ultimate Collection
DYEAR=1900
DGENRE=Country
TTITLE0=New San Antonio Rose
TTITLE1=Time Changes Everything
TTITLE2=Cotton Eyed Joe
TTITLE3=Take Me Back To Tulsa
TTITLE4=Bob Wills Special
TTITLE5=That's What I Like About The South
TTITLE6=Oozlin' Daddy Blues
TTITLE7=Osage Stomp
TTITLE8=Get With It
TTITLE9=Oklahoma Rag
TTITLE10=Steel Guitar Rag
TTITLE11=Whoa Baby
TTITLE12=Right Or Wrong
TTITLE13=Corrine, Corrina
TTITLE14=Big Beaver
TTITLE15=Lone Star Rag
TTITLE16=Please Don't Leave Me
TTITLE17=You're From Texas
TTITLE18=We Might As Well Forget It
TTITLE19=Twin Guitar Special
TTITLE20=Home In San Antone
TTITLE21=Stay A Little Longer
TTITLE22=Texas Playboy Rag
TTITLE23=Roly-Poly
TTITLE24=New Spanish Two Step
TTITLE25=Dusty Skies
EXTD=
EXTT0=
EXTT1=
EXTT2=
EXTT3=
EXTT4=
EXTT5=
EXTT6=
EXTT7=
EXTT8=
EXTT9=
EXTT10=
EXTT11=
EXTT12=
EXTT13=
EXTT14=
EXTT15=
EXTT16=
EXTT17=
EXTT18=
EXTT19=
EXTT20=
EXTT21=
EXTT22=
EXTT23=
EXTT24=
EXTT25=
PLAYORDER=
